<svg width="188" height="168" viewBox="0 0 188 168" fill="none" xmlns="http://www.w3.org/2000/svg">
<path d="M30.1293 140.408L31.4153 129.395L30.1293 140.408Z" fill="url(#paint0_linear_2402_26309)"/>
<path d="M89.9996 74.3328C89.9996 74.3328 80.0976 75.5492 73.3646 79.965C66.6315 84.3803 57.2206 99.112 54.1871 102.391C46.3616 110.851 35.918 114.872 30.2519 127.2C24.5858 139.527 30.0752 149.482 31.5228 151.702C32.3457 152.963 36.7577 158.708 43.89 162.676C51.0228 166.645 55.4581 166.99 60.0531 167.577C61.807 167.801 66.3416 167.849 72.3203 166.628C78.299 165.407 77.1414 163.9 83.968 162.692C90.7946 161.484 95.1444 161.551 101.726 162.513C108.308 163.476 105.923 164.974 112.992 165.912C120.061 166.85 131.407 167.281 133.439 166.981C138.917 166.171 141.147 164.58 145.952 162.081C148.595 160.705 152.599 155.855 154.506 153.624C157.194 150.476 164.613 135.933 153.253 122.146C142.369 108.938 141.131 113.302 131.696 103.276C122.262 93.2495 117.986 83.777 115.515 82.0406C104.231 74.1112 102.49 74.6693 102.49 74.6693L89.9996 74.3328ZM112.266 104.337C112.266 104.337 117.438 106.268 119.913 110.339C122.809 115.104 123.621 120.038 121.513 124.891C120.478 127.274 119.411 129.817 116.086 132.837C114.519 134.259 113.504 135.819 111.462 137.42C109.868 138.67 106.624 141.842 105.066 143.334C103.508 144.826 98.2703 148.841 98.2703 148.841C98.2703 148.841 92.2503 154.393 92.2091 154.347C92.1666 154.319 84.9809 150.042 84.935 150.02C84.9164 150.013 80.1842 145.249 80.1801 145.247C79.7024 145.315 72.5806 137.629 71.5677 136.411C66.4072 132.828 62.3846 119.308 62.3375 118.991C62.2219 118.221 62.1841 117.736 62.1475 116.525C61.9656 110.574 64.7684 107.254 69.593 104.904C76.4283 101.575 77.5575 102.93 78.2223 102.884C79.1608 102.818 82.7644 103.514 83.6158 103.893C86.8033 105.31 90.1925 109.241 92.5519 113.292C94.4761 110.99 95.9242 109.366 97.5474 107.944C100.269 105.559 102.288 105.426 105.688 104.422C107.313 103.943 112.266 104.337 112.266 104.337Z" fill="url(#paint1_linear_2402_26309)" stroke="black" stroke-width="0.00585938" stroke-linecap="round" stroke-linejoin="round"/>
<path d="M14.8879 50.0545C14.8879 50.0545 9.71169 52.5543 6.81996 56.4762C3.92817 60.3982 3.32088 65.7424 3.32088 65.7424C3.32088 65.7424 1.78761 72.6764 1.35444 78.4497C0.921257 84.2234 0.46739 83.5477 1.58817 88.8358C2.70895 94.1245 3.22993 95.575 5.83784 99.6031C8.44539 103.631 18.9924 108.81 18.9924 108.81C18.9924 108.81 24.4998 111.074 29.4529 110.741C34.4059 110.406 35.4356 109.812 38.8039 107.474C42.1716 105.135 44.8884 97.2988 45.6189 95.1481C48.9215 85.4241 43.528 72.3628 37.5359 64.4095C35.424 61.6059 33.4278 58.609 30.7209 56.2421C24.5388 50.8359 20.8212 48.6878 14.8303 50.0006" fill="url(#paint2_linear_2402_26309)"/>
<path d="M176.767 53.2338C176.767 53.2338 185.051 61.552 187.228 72.0786C189.406 82.6058 186.377 93.1711 185.477 95.3419C185.11 96.2229 178.067 107.259 168.993 110.785C159.919 114.312 155.839 112.864 149.182 109.449C142.525 106.034 143.097 99.2743 142.367 97.1235C139.064 87.3995 144.458 74.3382 150.45 66.3849C152.562 63.5813 154.558 60.5844 157.265 58.2175C163.447 52.8113 169.4 50.1128 176.251 52.9577" fill="url(#paint3_linear_2402_26309)"/>
<path d="M61.1648 4.75837C61.1648 4.75837 51.6557 11.6266 48.1689 17.0835C44.6821 22.5409 42.146 24.4341 39.7686 31.7847C37.3912 39.1353 39.095 51.9433 41.6706 57.0294C44.2462 62.1155 44.4043 63.0433 48.961 66.8302C53.5176 70.6166 67.2516 73.0211 72.8933 69.7999C83.037 64.0087 84.7804 58.3286 88.4253 46.9313C92.0707 35.5346 88.2672 29.9655 87.4745 24.2114C86.6819 18.4572 83.8291 8.768 81.4516 5.50106C79.0748 2.23411 73.2501 0.637505 70.5158 0.89739C67.7822 1.15728 61.4304 4.52751 61.4304 4.52751" fill="url(#paint4_linear_2402_26309)"/>
<path d="M129.796 4.89504C129.796 4.89504 138.577 12.9061 141.825 15.9874C145.074 19.0687 148.186 24.1602 150.676 31.7847C153.166 39.4097 151.785 46.4859 151.785 46.4859C151.785 46.4859 150.042 61.0015 141.484 66.8302C132.925 72.6585 117.551 69.7999 117.551 69.7999C117.551 69.7999 109.983 68.4637 105.981 60.2964C101.979 52.129 101.623 43.256 101.543 37.1305C101.464 31.005 103.208 18.7915 104.713 14.1138C106.219 9.43609 106.615 8.768 108.992 5.50106C111.37 2.23411 117.194 0.637505 119.929 0.89739C122.662 1.15728 129.351 4.8199 129.351 4.8199" fill="url(#paint5_linear_2402_26309)"/>
<defs>
<linearGradient id="paint0_linear_2402_26309" x1="30.1293" y1="134.902" x2="31.4153" y2="134.902" gradientUnits="userSpaceOnUse">
<stop stop-color="#05A2A5"/>
<stop offset="1" stop-color="#74DFDC"/>
</linearGradient>
<linearGradient id="paint1_linear_2402_26309" x1="28.5774" y1="121.203" x2="159.488" y2="121.203" gradientUnits="userSpaceOnUse">
<stop stop-color="#05A2A5"/>
<stop offset="1" stop-color="#74DFDC"/>
</linearGradient>
<linearGradient id="paint2_linear_2402_26309" x1="0.589934" y1="80.1675" x2="46.6237" y2="80.1675" gradientUnits="userSpaceOnUse">
<stop stop-color="#05A2A5"/>
<stop offset="1" stop-color="#74DFDC"/>
</linearGradient>
<linearGradient id="paint3_linear_2402_26309" x1="141.361" y1="82.3428" x2="188.091" y2="82.3428" gradientUnits="userSpaceOnUse">
<stop stop-color="#6CDEDA"/>
<stop offset="1" stop-color="#05A2A5"/>
</linearGradient>
<linearGradient id="paint4_linear_2402_26309" x1="38.6208" y1="36.2713" x2="88.5136" y2="36.2713" gradientUnits="userSpaceOnUse">
<stop stop-color="#05A2A5"/>
<stop offset="1" stop-color="#74DFDC"/>
</linearGradient>
<linearGradient id="paint5_linear_2402_26309" x1="151.824" y1="36.2713" x2="101.931" y2="36.2713" gradientUnits="userSpaceOnUse">
<stop stop-color="#05A2A5"/>
<stop offset="1" stop-color="#76E3E0"/>
</linearGradient>
</defs>
</svg>
