<svg width="125" height="114" viewBox="0 0 125 114" fill="none" xmlns="http://www.w3.org/2000/svg">
<path d="M20.0328 94.6091L20.8879 87.1881L20.0328 94.6091Z" fill="white"/>
<path d="M59.8402 50.0865C59.8402 50.0865 53.2564 50.9061 48.7797 53.8815C44.3029 56.8566 38.0457 66.783 36.0287 68.9924C30.8255 74.6931 23.8816 77.4021 20.1143 85.7088C16.347 94.0151 19.9968 100.723 20.9593 102.219C21.5065 103.069 24.44 106.939 29.1822 109.614C33.9248 112.288 36.8737 112.52 39.9289 112.916C41.0951 113.067 44.1101 113.099 48.0853 112.276C52.0605 111.453 51.2908 110.438 55.8298 109.624C60.3687 108.81 63.2609 108.855 67.6372 109.503C72.0131 110.152 70.4277 111.162 75.1278 111.794C79.8279 112.426 87.3718 112.716 88.7231 112.514C92.3652 111.968 93.8478 110.896 97.0425 109.212C98.8002 108.285 101.462 105.017 102.73 103.514C104.517 101.393 109.45 91.5933 101.897 82.3037C94.6604 73.4042 93.837 76.3444 87.5639 69.5886C81.2912 62.8328 78.4485 56.4501 76.8051 55.2801C69.3025 49.9371 68.1449 50.3132 68.1449 50.3132L59.8402 50.0865ZM74.6452 70.304C74.6452 70.304 78.0841 71.605 79.7294 74.3482C81.6551 77.5588 82.1949 80.8835 80.7931 84.1536C80.1049 85.7587 79.3959 87.4728 77.185 89.5072C76.1429 90.4658 75.4682 91.5166 74.1104 92.5956C73.0505 93.438 70.8937 95.5751 69.8578 96.5803C68.8219 97.586 65.3393 100.291 65.3393 100.291C65.3393 100.291 61.3367 104.032 61.3092 104.001C61.281 103.982 56.5033 101.1 56.4727 101.086C56.4604 101.081 53.314 97.871 53.3113 97.8696C52.9937 97.9151 48.2584 92.7365 47.5849 91.9158C44.1538 89.5013 41.4791 80.3912 41.4478 80.178C41.371 79.6592 41.3458 79.332 41.3215 78.5164C41.2006 74.506 43.0641 72.2691 46.272 70.686C50.8167 68.4425 51.5675 69.356 52.0095 69.3248C52.6335 69.2804 55.0296 69.7493 55.5956 70.0043C57.715 70.9593 59.9684 73.6078 61.5372 76.3375C62.8165 74.7866 63.7794 73.6922 64.8586 72.7339C66.6681 71.127 68.0104 71.0378 70.2712 70.3613C71.352 70.038 74.6452 70.304 74.6452 70.304Z" fill="white" stroke="black" stroke-width="0.00585938" stroke-linecap="round" stroke-linejoin="round"/>
<path d="M9.89883 33.7274C9.89883 33.7274 6.45723 35.4118 4.53454 38.0545C2.61181 40.6971 2.20803 44.2981 2.20803 44.2981C2.20803 44.2981 1.18857 48.9704 0.900549 52.8605C0.612532 56.7509 0.310758 56.2956 1.05596 59.8588C1.80115 63.4223 2.14755 64.3997 3.88153 67.1139C5.61528 69.8282 12.6279 73.3176 12.6279 73.3176C12.6279 73.3176 16.2898 74.8435 19.583 74.6186C22.8762 74.3933 23.5609 73.993 25.8005 72.4173C28.0396 70.8411 29.846 65.5613 30.3317 64.1121C32.5276 57.5599 28.9415 48.7591 24.9573 43.4C23.5532 41.5109 22.2259 39.4915 20.4261 37.8967C16.3157 34.2539 13.8439 32.8065 9.86058 33.6911" fill="white"/>
<path d="M117.531 35.8697C117.531 35.8697 123.039 41.4746 124.487 48.5676C125.935 55.6609 123.921 62.7799 123.322 64.2427C123.079 64.8363 118.396 72.2724 112.363 74.6487C106.329 77.025 103.616 76.0494 99.19 73.7483C94.7643 71.4469 95.1445 66.8924 94.6588 65.4432C92.4629 58.891 96.049 50.0901 100.033 44.731C101.437 42.8419 102.765 40.8226 104.564 39.2278C108.675 35.585 112.633 33.7667 117.188 35.6837" fill="white"/>
<path d="M40.6681 3.20625C40.6681 3.20625 34.3455 7.83414 32.0272 11.5111C29.7088 15.1883 28.0226 16.464 26.4419 21.417C24.8611 26.3699 25.994 35.0001 27.7065 38.4272C29.419 41.8543 29.5241 42.4795 32.5538 45.0311C35.5835 47.5825 44.7152 49.2026 48.4663 47.0321C55.2108 43.1299 56.3699 39.3026 58.7934 31.623C61.2172 23.9437 58.6883 20.1912 58.1612 16.314C57.6342 12.4367 55.7374 5.90799 54.1567 3.70668C52.5763 1.50537 48.7035 0.429557 46.8855 0.604671C45.0679 0.779785 40.8447 3.05069 40.8447 3.05069" fill="white"/>
<path d="M86.3004 3.29834C86.3004 3.29834 92.1388 8.69632 94.2987 10.7725C96.459 12.8487 98.5278 16.2795 100.183 21.417C101.839 26.5548 100.921 31.3228 100.921 31.3228C100.921 31.3228 99.7619 41.1036 94.0715 45.0311C88.3807 48.9583 78.159 47.0321 78.159 47.0321C78.159 47.0321 73.127 46.1318 70.4663 40.6285C67.8052 35.1252 67.5684 29.1465 67.5155 25.019C67.4629 20.8916 68.6221 12.662 69.6232 9.51007C70.6244 6.35816 70.8879 5.90799 72.4682 3.70668C74.049 1.50537 77.9218 0.429557 79.7398 0.604671C81.5574 0.779785 86.0048 3.24771 86.0048 3.24771" fill="white"/>
</svg>
